<svg id="e7kNxqecnf41" xmlns="http://www.w3.org/2000/svg" xmlns:xlink="http://www.w3.org/1999/xlink" viewBox="0 0 64 64" shape-rendering="geometricPrecision" text-rendering="geometricPrecision"><path style="mix-blend-mode:hard-light" d="M320.00001,224.383254c-.20304-12.07486-10.80793-20.930394-20.43255-33.862804-6.938441-9.205704-13.466687-16.352352-13.58546-27.20055-.205687-18.786494,15.23038-34.01801,34.01801-34.01801s34.137586,15.230761,34.01801,34.01801c-.069132,10.861698-6.469794,17.820475-14.01802,27.20055-8.99479,11.25964-19.36661,19.655906-19.99999,33.862806v-.000002ZM320,183.3199c11.04569,0,20-8.9543,20-20s-8.9543-20-20-20-20,8.9543-20,20s8.9543,20,20,20Z" transform="matrix(.626194 0 0 0.626194-168.382086-78.737757)" fill="#0c0c0c" stroke-width="4"/></svg>